<svg version="1.2" baseProfile="tiny-ps" xmlns="http://www.w3.org/2000/svg" viewBox="0 0 512 512" width="512" height="512">
	<title>tlbicon</title>
	<style>
		tspan { white-space:pre }
		.shp0 { fill: #2ac3cf } 
	</style>
	<path class="shp0" d="M42 0L470 0L470 36L42 36L42 0ZM96 67L416 67L416 103L96 103L96 67ZM148 134L363 134L363 170L148 170L148 134ZM42 476L470 476L470 512L42 512L42 476ZM96 409L416 409L416 445L96 445L96 409ZM148 342L363 342L363 378L148 378L148 342ZM255 202L317 202L299.15 240.99L273 240.99L255 202ZM255 202L317 202L299.15 240.99L273 240.99L255 202ZM254 307.99L192 307.99L209.85 269L236 269L254 307.99ZM254 307.99L192 307.99L209.85 269L236 269L254 307.99ZM193 202L255 202L237.15 240.99L211 240.99L193 202ZM193 202L255 202L237.15 240.99L211 240.99L193 202ZM316 307.99L254 307.99L271.85 269L298 269L316 307.99ZM316 307.99L254 307.99L271.85 269L298 269L316 307.99Z" />
</svg>